<svg height="512" viewBox="0 0 58 58" width="512" xmlns="http://www.w3.org/2000/svg"><g id="Page-1" fill="none" fill-rule="evenodd"><g id="057---Face-Detection" fill-rule="nonzero"><rect id="Rectangle-path" fill="#2fa8cc" height="58" rx="2" width="58"/><g fill="#3f5c6c"><path id="Shape" d="m4 10c-.55228475 0-1-.44771525-1-1v-5c0-.55228475.44771525-1 1-1h5c.55228475 0 1 .44771525 1 1s-.44771525 1-1 1h-4v4c0 .55228475-.44771525 1-1 1z"/><path id="Shape" d="m54 10c-.5522847 0-1-.44771525-1-1v-4h-4c-.5522847 0-1-.44771525-1-1s.4477153-1 1-1h5c.5522847 0 1 .44771525 1 1v5c0 .55228475-.4477153 1-1 1z"/><path id="Shape" d="m8 55h-4c-.55228475 0-1-.4477153-1-1v-5c0-.5522847.44771525-1 1-1s1 .4477153 1 1v4h3c.55228475 0 1 .4477153 1 1s-.44771525 1-1 1z"/><path id="Shape" d="m54 55h-5c-.5522847 0-1-.4477153-1-1s.4477153-1 1-1h4v-4c0-.5522847.4477153-1 1-1s1 .4477153 1 1v5c0 .5522847-.4477153 1-1 1z"/></g><path id="Shape" d="m48.57 34.96c.7534843.6213882 1.2980193 1.4591344 1.56 2.4.16.96-.55 2.11-1.51 2.02.8.18.63 1.46-.03 1.97s-1.56.65-2.1 1.26c-1.17 1.32.08 3.56-.77 5.1-.5281133.8184501-1.4464285 1.3003758-2.42 1.27-.9567035-.0355493-1.8988522-.2456688-2.78-.62-2.2785222-.7959991-4.506043-1.7310903-6.67-2.8-.3409745.5921839-.5523025 1.2500277-.62 1.93-.1313221 2.1867663.0641607 4.3808917.58 6.51h-21.27c-.1971599.0017288-.3769265-.1125699-.4590029-.291842-.0820764-.1792722-.0511352-.3900395.0790029-.538158 1.2153436-1.4202199 2.3249816-2.9275895 3.32-4.51 2.0547386-3.215175 2.5611083-7.1817382 1.38-10.81-1.21-3.62-4.06-6.47-6.15-9.59-2.36-3.53-3.48-7.53-2.12-11.66 1.34439082-3.7575198 3.861674-6.98300792 7.18-9.2 3.5-2.33 8.04-3.74 14.42-3.33 8.89.58 16.81 3.93 17.45 12.81.19 2.81-.93 5.55-.5 8.36.45 3.07 3.68 5.9 3.85 7.3.15 1.23-1.25 2-2.42 2.42z" fill="#fdd7ad"/><path id="Shape" d="m33.85 45.56c-.3409745.5921839-.5523025 1.2500277-.62 1.93-2.3655674-1.1541806-4.5570343-2.6353564-6.51-4.4l-.35-.31c-1.1-.98-2.61-2.32-2.72-3.93-.0525111-.3693185.1049061-.737163.4083287-.9541614.3034226-.2169985.7024029-.2470724 1.0349256-.0780095s.5433018.5091538.5467457.8821709c.06.8 1.31 1.92 2.06 2.59l.37.33c1.7396316 1.5686673 3.6840278 2.8940862 5.78 3.94z" fill="#f9c795"/></g></g></svg>